<?xml version="1.0" encoding="UTF-8"?>
<svg xmlns="http://www.w3.org/2000/svg" xmlns:xlink="http://www.w3.org/1999/xlink" width="3424.8" height="3424.3" viewBox="0 0 3424.8 3424.3">
<defs>
<clipPath id="clip-0">
<path clip-rule="evenodd" d="M 372 1783 C 372 1796 378.5 1808.199219 389.199219 1815.699219 C 396 1820.398438 403.898438 1822.800781 411.898438 1822.800781 C 416.5 1822.800781 421.300781 1821.898438 425.800781 1820.300781 L 616.898438 1749.101562 C 632.5 1743.300781 642.800781 1728.5 642.800781 1711.800781 C 642.800781 1695.199219 632.5 1680.398438 616.898438 1674.601562 L 425.800781 1603.300781 C 413.601562 1598.699219 399.898438 1600.5 389.199219 1607.898438 C 378.5 1615.300781 372.101562 1627.5 372.101562 1640.601562 Z M 261.101562 1548.199219 L 753.800781 1548.199219 L 753.800781 1875.199219 L 261.101562 1875.199219 Z M 451.699219 1697.800781 L 451.699219 1725.699219 L 489.101562 1711.800781 Z M 1442.398438 2916.898438 C 1442.398438 2978.699219 1463.300781 3035.601562 1498.300781 3081.199219 C 1526.199219 3034.300781 1541.699219 2976.601562 1541.699219 2916.898438 C 1541.699219 2857.199219 1526.199219 2799.5 1498.300781 2752.601562 C 1463.300781 2798.199219 1442.398438 2855.199219 1442.398438 2916.898438 Z M 1712.699219 2646.699219 C 1654.800781 2646.699219 1601.101562 2665 1557 2696.199219 C 1598.699219 2758.199219 1621.300781 2835.101562 1621.300781 2916.898438 C 1621.300781 2998.699219 1598.699219 3075.5 1557 3137.601562 C 1601 3168.800781 1654.800781 3187.101562 1712.699219 3187.101562 C 1770.601562 3187.101562 1824.300781 3168.800781 1868.398438 3137.601562 C 1826.699219 3075.601562 1804.101562 2998.699219 1804.101562 2916.898438 C 1804.101562 2835.101562 1826.800781 2758.300781 1868.398438 2696.199219 C 1824.300781 2665.101562 1770.601562 2646.699219 1712.699219 2646.699219 Z M 1883.601562 2916.898438 C 1883.601562 2976.601562 1899.101562 3034.300781 1927 3081.199219 C 1962 3035.601562 1982.800781 2978.601562 1982.800781 2916.898438 C 1982.800781 2855.101562 1961.898438 2798.199219 1927 2752.601562 C 1899.101562 2799.5 1883.601562 2857.199219 1883.601562 2916.898438 Z M 3271.5 1881.800781 L 3271.5 1717 C 3271.5 1522.101562 3113 1363.398438 2917.898438 1363.398438 C 2723 1363.398438 2564.398438 1522 2564.398438 1717 L 2564.398438 1881.800781 C 2564.398438 1903.800781 2582.199219 1921.601562 2604.199219 1921.601562 L 3231.699219 1921.601562 C 3253.699219 1921.601562 3271.5 1903.800781 3271.5 1881.800781 Z M 2736.300781 2185 C 2546.199219 2111.898438 2410.898438 1927.300781 2410.898438 1711.699219 C 2410.898438 1496.101562 2546.199219 1311.601562 2736.398438 1238.398438 C 2623.800781 994.5 2429.300781 800.199219 2185.398438 687.699219 C 2112.300781 877.601562 1928.101562 1012.898438 1712.601562 1012.898438 C 1497.199219 1012.898438 1312.898438 877.699219 1239.699219 687.800781 C 996.101562 800.398438 801.800781 994.5 688.898438 1238 C 879.199219 1311.199219 1014.601562 1495.800781 1014.601562 1711.601562 C 1014.601562 1927.398438 879.101562 2112 688.898438 2185.300781 C 801.5 2428.699219 995.699219 2622.601562 1239 2735.199219 C 1312.199219 2544.898438 1496.800781 2409.5 1712.601562 2409.5 C 1928.398438 2409.5 2112.898438 2545 2186.101562 2735.199219 C 2429.601562 2622.601562 2623.800781 2428.601562 2736.300781 2185 Z M 2062.398438 2916.898438 C 2062.398438 2817.300781 2020.5 2727.300781 1953.5 2663.5 C 1952.199219 2662.101562 1950.898438 2660.699219 1949.398438 2659.398438 C 1948.601562 2658.699219 1947.800781 2658.101562 1947 2657.5 C 1884.898438 2601.398438 1802.699219 2567.101562 1712.601562 2567.101562 C 1622.5 2567.101562 1540.300781 2601.300781 1478.199219 2657.5 C 1477.398438 2658.101562 1476.5 2658.800781 1475.800781 2659.5 C 1474.300781 2660.800781 1472.898438 2662.199219 1471.601562 2663.699219 C 1404.601562 2727.5 1362.800781 2817.398438 1362.800781 2917 C 1362.800781 3016.601562 1404.601562 3106.601562 1471.601562 3170.199219 C 1472.898438 3171.699219 1474.300781 3173.101562 1475.800781 3174.398438 C 1476.601562 3175.101562 1477.398438 3175.699219 1478.199219 3176.398438 C 1540.300781 3232.5 1622.5 3266.800781 1712.5 3266.800781 C 1802.601562 3266.800781 1884.800781 3232.601562 1946.898438 3176.398438 C 1947.699219 3175.800781 1948.5 3175.101562 1949.300781 3174.5 C 1950.800781 3173.199219 1952.101562 3171.898438 1953.300781 3170.5 C 2020.5 3106.601562 2062.398438 3016.601562 2062.398438 2916.898438 Z M 793.5 1954.800781 C 815.5 1954.800781 833.300781 1937 833.300781 1915 L 833.300781 1508.398438 C 833.300781 1486.398438 815.5 1468.601562 793.5 1468.601562 L 221.300781 1468.601562 C 199.300781 1468.601562 181.5 1486.398438 181.5 1508.398438 L 181.5 1915 C 181.5 1937 199.398438 1954.800781 221.300781 1954.800781 Z M 1435.5 697.699219 C 1435.5 756 1482.898438 803.398438 1541.199219 803.398438 C 1598.800781 803.398438 1645.800781 757 1646.800781 699.601562 L 1646.898438 697.601562 L 1646.898438 360.199219 L 1910.101562 299.398438 L 1910.101562 542.5 C 1901.800781 540.398438 1893 539.199219 1884 539.199219 C 1825.699219 539.199219 1778.199219 586.699219 1778.199219 644.898438 C 1778.199219 703.199219 1825.699219 750.601562 1884 750.601562 C 1941.800781 750.601562 1989 703.898438 1989.699219 646.199219 L 1989.699219 249.398438 C 1989.699219 237.199219 1984.199219 225.800781 1974.699219 218.199219 C 1965.300781 210.601562 1952.800781 207.699219 1941 210.601562 L 1598.199219 289.699219 C 1580.101562 294 1567.300781 309.898438 1567.300781 328.5 L 1567.300781 595.300781 C 1559 593.199219 1550.199219 592.101562 1541.199219 592.101562 C 1482.898438 592 1435.5 639.398438 1435.5 697.699219 Z M 3424.800781 1711.699219 C 3424.800781 1991.199219 3197.398438 2218.699219 2917.800781 2218.699219 C 2908.800781 2218.699219 2899.898438 2218.5 2891.101562 2218 C 2890.300781 2220.601562 2889.398438 2223.101562 2888.300781 2225.601562 C 2758.300781 2522.199219 2523.898438 2758.800781 2226.398438 2887.5 C 2224 2888.5 2221.699219 2889.398438 2219.199219 2890.199219 C 2219.699219 2899.101562 2219.898438 2908 2219.898438 2917 C 2219.898438 3196.699219 1992.398438 3424.300781 1712.601562 3424.300781 C 1432.898438 3424.300781 1205.300781 3196.699219 1205.300781 2917 C 1205.300781 2908 1205.5 2899.101562 1206 2890.199219 C 1203.601562 2889.398438 1201.101562 2888.5 1198.699219 2887.398438 C 901.699219 2757.800781 667 2522.300781 536.898438 2225.601562 C 535.898438 2223.199219 534.898438 2220.800781 534.101562 2218.398438 C 525.199219 2218.898438 516.199219 2219.101562 507.300781 2219.101562 C 227.5 2219.101562 0 1991.398438 0 1711.699219 C 0 1431.898438 227.601562 1204.398438 507.300781 1204.398438 C 516.300781 1204.398438 525.199219 1204.601562 534.101562 1205.101562 C 534.898438 1202.699219 535.800781 1200.199219 536.898438 1197.898438 C 667 901.300781 901.699219 665.800781 1198.699219 536.199219 C 1201.398438 535 1204.101562 534.101562 1206.699219 533.199219 C 1206.199219 524.398438 1206 515.5 1206 506.601562 C 1206 227.300781 1433.300781 0 1712.601562 0 C 1991.898438 0 2219.101562 227.300781 2219.101562 506.601562 C 2219.101562 515.5 2218.898438 524.398438 2218.398438 533.199219 C 2221.101562 534.101562 2223.800781 535 2226.398438 536.199219 C 2523.300781 665.898438 2758.300781 901.199219 2888.300781 1198 C 2889.398438 1200.5 2890.300781 1203 2891.101562 1205.601562 C 2899.898438 1205.101562 2908.800781 1204.898438 2917.800781 1204.898438 C 3197.300781 1204.800781 3424.800781 1432.199219 3424.800781 1711.699219 Z M 2643.898438 1841.898438 L 3191.898438 1841.898438 L 3191.898438 1756.601562 L 2643.898438 1756.601562 Z M 3056.199219 1602.199219 C 3056.199219 1580.199219 3038.398438 1562.398438 3016.398438 1562.398438 L 3003.5 1562.398438 C 2981.5 1562.398438 2963.699219 1580.199219 2963.699219 1602.199219 C 2963.699219 1624.199219 2981.601562 1642 3003.5 1642 L 3016.398438 1642 C 3038.300781 1642.101562 3056.199219 1624.199219 3056.199219 1602.199219 Z M 2964.199219 1517.800781 C 2964.199219 1495.800781 2946.398438 1478 2924.398438 1478 L 2911.5 1478 C 2889.5 1478 2871.699219 1495.800781 2871.699219 1517.800781 C 2871.699219 1539.800781 2889.601562 1557.601562 2911.5 1557.601562 L 2924.398438 1557.601562 C 2946.300781 1557.601562 2964.199219 1539.800781 2964.199219 1517.800781 Z M 2872 1602.199219 C 2872 1580.199219 2854.199219 1562.398438 2832.199219 1562.398438 L 2819.398438 1562.398438 C 2797.398438 1562.398438 2779.601562 1580.199219 2779.601562 1602.199219 C 2779.601562 1624.199219 2797.398438 1642 2819.398438 1642 L 2832.199219 1642 C 2854.199219 1642.101562 2872.101562 1624.199219 2872 1602.199219 Z M 3189 1677.101562 L 2646.898438 1677.101562 C 2666.300781 1544.898438 2780.398438 1442.898438 2917.898438 1442.898438 C 3055.398438 1442.898438 3169.601562 1544.800781 3189 1677.101562 Z M 1884.101562 618.800781 C 1869.699219 618.800781 1857.898438 630.5 1857.898438 644.898438 C 1857.898438 659.300781 1869.601562 671 1884.101562 671 C 1898.5 671 1910.199219 659.300781 1910.199219 644.898438 C 1910.199219 630.5 1898.5 618.800781 1884.101562 618.800781 Z M 1515.101562 697.699219 C 1515.101562 683.300781 1526.800781 671.601562 1541.199219 671.601562 C 1555.601562 671.601562 1567.300781 683.300781 1567.300781 697.699219 C 1567.300781 712.101562 1555.601562 723.800781 1541.199219 723.800781 C 1526.800781 723.800781 1515.101562 712.101562 1515.101562 697.699219 "/>
</clipPath>
<linearGradient id="linear-pattern-0" gradientUnits="userSpaceOnUse" x1="-0.390627" y1="0" x2="1.390757" y2="0" gradientTransform="matrix(1922.41, 1922.41, -1922.41, 1922.41, 751.219, 750.67)">
<stop offset="0" stop-color="rgb(83.769226%, 15.103149%, 17.62085%)" stop-opacity="1"/>
<stop offset="0.125" stop-color="rgb(83.769226%, 15.103149%, 17.62085%)" stop-opacity="1"/>
<stop offset="0.1875" stop-color="rgb(83.769226%, 15.103149%, 17.62085%)" stop-opacity="1"/>
<stop offset="0.21875" stop-color="rgb(83.769226%, 15.103149%, 17.62085%)" stop-opacity="1"/>
<stop offset="0.222656" stop-color="rgb(83.782959%, 15.386963%, 17.463684%)" stop-opacity="1"/>
<stop offset="0.226562" stop-color="rgb(83.798218%, 15.667725%, 17.304993%)" stop-opacity="1"/>
<stop offset="0.230469" stop-color="rgb(83.807373%, 15.864563%, 17.14325%)" stop-opacity="1"/>
<stop offset="0.234375" stop-color="rgb(83.818054%, 16.059875%, 16.981506%)" stop-opacity="1"/>
<stop offset="0.238281" stop-color="rgb(83.996582%, 16.323853%, 16.821289%)" stop-opacity="1"/>
<stop offset="0.242188" stop-color="rgb(84.172058%, 16.58783%, 16.659546%)" stop-opacity="1"/>
<stop offset="0.246094" stop-color="rgb(84.307861%, 16.828918%, 16.496277%)" stop-opacity="1"/>
<stop offset="0.25" stop-color="rgb(84.443665%, 17.070007%, 16.333008%)" stop-opacity="1"/>
<stop offset="0.253906" stop-color="rgb(84.498596%, 17.23175%, 16.162109%)" stop-opacity="1"/>
<stop offset="0.257812" stop-color="rgb(84.555054%, 17.393494%, 15.989685%)" stop-opacity="1"/>
<stop offset="0.261719" stop-color="rgb(84.661865%, 17.578125%, 15.826416%)" stop-opacity="1"/>
<stop offset="0.265625" stop-color="rgb(84.768677%, 17.762756%, 15.660095%)" stop-opacity="1"/>
<stop offset="0.269531" stop-color="rgb(84.794617%, 18.03894%, 15.545654%)" stop-opacity="1"/>
<stop offset="0.273438" stop-color="rgb(84.820557%, 18.315125%, 15.431213%)" stop-opacity="1"/>
<stop offset="0.277344" stop-color="rgb(84.95636%, 18.469238%, 15.245056%)" stop-opacity="1"/>
<stop offset="0.28125" stop-color="rgb(85.092163%, 18.623352%, 15.057373%)" stop-opacity="1"/>
<stop offset="0.285156" stop-color="rgb(85.113525%, 18.904114%, 14.942932%)" stop-opacity="1"/>
<stop offset="0.289062" stop-color="rgb(85.134888%, 19.184875%, 14.826965%)" stop-opacity="1"/>
<stop offset="0.292969" stop-color="rgb(85.350037%, 19.378662%, 14.735413%)" stop-opacity="1"/>
<stop offset="0.296875" stop-color="rgb(85.565186%, 19.573975%, 14.64386%)" stop-opacity="1"/>
<stop offset="0.300781" stop-color="rgb(85.749817%, 19.816589%, 14.526367%)" stop-opacity="1"/>
<stop offset="0.304688" stop-color="rgb(85.932922%, 20.059204%, 14.407349%)" stop-opacity="1"/>
<stop offset="0.308594" stop-color="rgb(86.004639%, 20.263672%, 14.335632%)" stop-opacity="1"/>
<stop offset="0.3125" stop-color="rgb(86.076355%, 20.46814%, 14.26239%)" stop-opacity="1"/>
<stop offset="0.320312" stop-color="rgb(86.134338%, 20.606995%, 14.205933%)" stop-opacity="1"/>
<stop offset="0.328125" stop-color="rgb(86.360168%, 20.89386%, 14.057922%)" stop-opacity="1"/>
<stop offset="0.335938" stop-color="rgb(86.782837%, 21.21582%, 13.94043%)" stop-opacity="1"/>
<stop offset="0.339844" stop-color="rgb(87.181091%, 21.670532%, 13.775635%)" stop-opacity="1"/>
<stop offset="0.34375" stop-color="rgb(87.32605%, 21.95282%, 13.63678%)" stop-opacity="1"/>
<stop offset="0.347656" stop-color="rgb(87.341309%, 22.123718%, 13.4552%)" stop-opacity="1"/>
<stop offset="0.351563" stop-color="rgb(87.356567%, 22.294617%, 13.272095%)" stop-opacity="1"/>
<stop offset="0.355469" stop-color="rgb(87.478638%, 22.557068%, 13.122559%)" stop-opacity="1"/>
<stop offset="0.359375" stop-color="rgb(87.600708%, 22.817993%, 12.971497%)" stop-opacity="1"/>
<stop offset="0.363281" stop-color="rgb(87.654114%, 23.002625%, 12.911987%)" stop-opacity="1"/>
<stop offset="0.367188" stop-color="rgb(87.705994%, 23.18573%, 12.850952%)" stop-opacity="1"/>
<stop offset="0.371094" stop-color="rgb(87.789917%, 23.394775%, 12.808228%)" stop-opacity="1"/>
<stop offset="0.375" stop-color="rgb(87.87384%, 23.603821%, 12.763977%)" stop-opacity="1"/>
<stop offset="0.378906" stop-color="rgb(87.966919%, 23.876953%, 12.710571%)" stop-opacity="1"/>
<stop offset="0.382812" stop-color="rgb(88.061523%, 24.14856%, 12.65564%)" stop-opacity="1"/>
<stop offset="0.386719" stop-color="rgb(88.076782%, 24.389648%, 12.619019%)" stop-opacity="1"/>
<stop offset="0.390625" stop-color="rgb(88.092041%, 24.630737%, 12.582397%)" stop-opacity="1"/>
<stop offset="0.398438" stop-color="rgb(88.117981%, 24.784851%, 12.554932%)" stop-opacity="1"/>
<stop offset="0.402344" stop-color="rgb(88.291931%, 25.210571%, 12.464905%)" stop-opacity="1"/>
<stop offset="0.40625" stop-color="rgb(88.439941%, 25.482178%, 12.402344%)" stop-opacity="1"/>
<stop offset="0.410156" stop-color="rgb(88.589478%, 25.801086%, 12.379456%)" stop-opacity="1"/>
<stop offset="0.414063" stop-color="rgb(88.739014%, 26.119995%, 12.356567%)" stop-opacity="1"/>
<stop offset="0.417969" stop-color="rgb(88.882446%, 26.283264%, 12.316895%)" stop-opacity="1"/>
<stop offset="0.421875" stop-color="rgb(89.024353%, 26.448059%, 12.278748%)" stop-opacity="1"/>
<stop offset="0.425781" stop-color="rgb(89.079285%, 26.683044%, 12.234497%)" stop-opacity="1"/>
<stop offset="0.429688" stop-color="rgb(89.134216%, 26.91803%, 12.191772%)" stop-opacity="1"/>
<stop offset="0.433594" stop-color="rgb(89.225769%, 27.19574%, 12.135315%)" stop-opacity="1"/>
<stop offset="0.4375" stop-color="rgb(89.317322%, 27.471924%, 12.080383%)" stop-opacity="1"/>
<stop offset="0.441406" stop-color="rgb(89.4104%, 27.690125%, 12.033081%)" stop-opacity="1"/>
<stop offset="0.445313" stop-color="rgb(89.500427%, 27.909851%, 11.985779%)" stop-opacity="1"/>
<stop offset="0.449219" stop-color="rgb(89.550781%, 28.086853%, 11.952209%)" stop-opacity="1"/>
<stop offset="0.453125" stop-color="rgb(89.599609%, 28.263855%, 11.917114%)" stop-opacity="1"/>
<stop offset="0.457031" stop-color="rgb(89.749146%, 28.521729%, 11.854553%)" stop-opacity="1"/>
<stop offset="0.460938" stop-color="rgb(89.900208%, 28.779602%, 11.790466%)" stop-opacity="1"/>
<stop offset="0.46875" stop-color="rgb(90.042114%, 28.916931%, 11.746216%)" stop-opacity="1"/>
<stop offset="0.472656" stop-color="rgb(90.205383%, 29.333496%, 11.657715%)" stop-opacity="1"/>
<stop offset="0.476562" stop-color="rgb(90.223694%, 29.614258%, 11.613464%)" stop-opacity="1"/>
<stop offset="0.480469" stop-color="rgb(90.464783%, 29.771423%, 11.547852%)" stop-opacity="1"/>
<stop offset="0.484375" stop-color="rgb(90.705872%, 29.928589%, 11.483765%)" stop-opacity="1"/>
<stop offset="0.488281" stop-color="rgb(90.895081%, 30.168152%, 11.4151%)" stop-opacity="1"/>
<stop offset="0.492188" stop-color="rgb(91.08429%, 30.406189%, 11.346436%)" stop-opacity="1"/>
<stop offset="0.496094" stop-color="rgb(91.156006%, 30.607605%, 11.305237%)" stop-opacity="1"/>
<stop offset="0.5" stop-color="rgb(91.226196%, 30.807495%, 11.262512%)" stop-opacity="1"/>
<stop offset="0.507812" stop-color="rgb(91.35437%, 30.969238%, 11.238098%)" stop-opacity="1"/>
<stop offset="0.511719" stop-color="rgb(91.688538%, 31.350708%, 11.180115%)" stop-opacity="1"/>
<stop offset="0.515625" stop-color="rgb(91.893005%, 31.567383%, 11.148071%)" stop-opacity="1"/>
<stop offset="0.519531" stop-color="rgb(91.93573%, 31.851196%, 11.099243%)" stop-opacity="1"/>
<stop offset="0.523438" stop-color="rgb(91.976929%, 32.13501%, 11.048889%)" stop-opacity="1"/>
<stop offset="0.527344" stop-color="rgb(92.131042%, 32.420349%, 10.978699%)" stop-opacity="1"/>
<stop offset="0.53125" stop-color="rgb(92.286682%, 32.704163%, 10.910034%)" stop-opacity="1"/>
<stop offset="0.535156" stop-color="rgb(92.308044%, 32.987976%, 10.862732%)" stop-opacity="1"/>
<stop offset="0.539062" stop-color="rgb(92.329407%, 33.27179%, 10.816956%)" stop-opacity="1"/>
<stop offset="0.542969" stop-color="rgb(92.469788%, 33.557129%, 10.749817%)" stop-opacity="1"/>
<stop offset="0.546875" stop-color="rgb(92.610168%, 33.842468%, 10.681152%)" stop-opacity="1"/>
<stop offset="0.550781" stop-color="rgb(92.668152%, 34.127808%, 10.627747%)" stop-opacity="1"/>
<stop offset="0.554688" stop-color="rgb(92.726135%, 34.413147%, 10.575867%)" stop-opacity="1"/>
<stop offset="0.558594" stop-color="rgb(92.829895%, 34.698486%, 10.513306%)" stop-opacity="1"/>
<stop offset="0.5625" stop-color="rgb(92.932129%, 34.983826%, 10.452271%)" stop-opacity="1"/>
<stop offset="0.566406" stop-color="rgb(93.025208%, 35.206604%, 10.401917%)" stop-opacity="1"/>
<stop offset="0.570312" stop-color="rgb(93.11676%, 35.427856%, 10.351562%)" stop-opacity="1"/>
<stop offset="0.574219" stop-color="rgb(93.177795%, 35.661316%, 10.305786%)" stop-opacity="1"/>
<stop offset="0.578125" stop-color="rgb(93.237305%, 35.891724%, 10.26001%)" stop-opacity="1"/>
<stop offset="0.582031" stop-color="rgb(93.382263%, 36.274719%, 10.176086%)" stop-opacity="1"/>
<stop offset="0.585938" stop-color="rgb(93.525696%, 36.657715%, 10.092163%)" stop-opacity="1"/>
<stop offset="0.59375" stop-color="rgb(93.537903%, 36.808777%, 10.067749%)" stop-opacity="1"/>
<stop offset="0.597656" stop-color="rgb(93.583679%, 37.388611%, 9.971619%)" stop-opacity="1"/>
<stop offset="0.601562" stop-color="rgb(93.617249%, 37.817383%, 9.901428%)" stop-opacity="1"/>
<stop offset="0.605469" stop-color="rgb(93.754578%, 37.997437%, 9.848022%)" stop-opacity="1"/>
<stop offset="0.609375" stop-color="rgb(93.891907%, 38.175964%, 9.796143%)" stop-opacity="1"/>
<stop offset="0.613281" stop-color="rgb(93.946838%, 38.427734%, 9.747314%)" stop-opacity="1"/>
<stop offset="0.617188" stop-color="rgb(94.00177%, 38.679504%, 9.700012%)" stop-opacity="1"/>
<stop offset="0.621094" stop-color="rgb(94.110107%, 38.969421%, 9.635925%)" stop-opacity="1"/>
<stop offset="0.625" stop-color="rgb(94.216919%, 39.259338%, 9.571838%)" stop-opacity="1"/>
<stop offset="0.628906" stop-color="rgb(94.308472%, 39.482117%, 9.519958%)" stop-opacity="1"/>
<stop offset="0.632812" stop-color="rgb(94.40155%, 39.704895%, 9.469604%)" stop-opacity="1"/>
<stop offset="0.636719" stop-color="rgb(94.462585%, 39.897156%, 9.428406%)" stop-opacity="1"/>
<stop offset="0.640625" stop-color="rgb(94.523621%, 40.089417%, 9.387207%)" stop-opacity="1"/>
<stop offset="0.644531" stop-color="rgb(94.688416%, 40.383911%, 9.310913%)" stop-opacity="1"/>
<stop offset="0.648438" stop-color="rgb(94.851685%, 40.678406%, 9.236145%)" stop-opacity="1"/>
<stop offset="0.652344" stop-color="rgb(95.010376%, 40.971375%, 9.161377%)" stop-opacity="1"/>
<stop offset="0.65625" stop-color="rgb(95.167542%, 41.265869%, 9.085083%)" stop-opacity="1"/>
<stop offset="0.660156" stop-color="rgb(95.19043%, 41.55426%, 9.037781%)" stop-opacity="1"/>
<stop offset="0.664062" stop-color="rgb(95.214844%, 41.842651%, 8.988953%)" stop-opacity="1"/>
<stop offset="0.667969" stop-color="rgb(95.367432%, 42.138672%, 8.914185%)" stop-opacity="1"/>
<stop offset="0.671875" stop-color="rgb(95.518494%, 42.433167%, 8.839417%)" stop-opacity="1"/>
<stop offset="0.675781" stop-color="rgb(95.578003%, 42.724609%, 8.784485%)" stop-opacity="1"/>
<stop offset="0.679688" stop-color="rgb(95.63446%, 43.014526%, 8.729553%)" stop-opacity="1"/>
<stop offset="0.683594" stop-color="rgb(95.658875%, 43.302917%, 8.680725%)" stop-opacity="1"/>
<stop offset="0.6875" stop-color="rgb(95.683289%, 43.591309%, 8.631897%)" stop-opacity="1"/>
<stop offset="0.691406" stop-color="rgb(95.707703%, 43.881226%, 8.583069%)" stop-opacity="1"/>
<stop offset="0.695312" stop-color="rgb(95.732117%, 44.169617%, 8.534241%)" stop-opacity="1"/>
<stop offset="0.699219" stop-color="rgb(95.755005%, 44.456482%, 8.486938%)" stop-opacity="1"/>
<stop offset="0.703125" stop-color="rgb(95.779419%, 44.744873%, 8.43811%)" stop-opacity="1"/>
<stop offset="0.707031" stop-color="rgb(95.803833%, 45.03479%, 8.389282%)" stop-opacity="1"/>
<stop offset="0.710938" stop-color="rgb(95.828247%, 45.323181%, 8.340454%)" stop-opacity="1"/>
<stop offset="0.714844" stop-color="rgb(95.852661%, 45.602417%, 8.293152%)" stop-opacity="1"/>
<stop offset="0.71875" stop-color="rgb(95.875549%, 45.881653%, 8.24585%)" stop-opacity="1"/>
<stop offset="0.726563" stop-color="rgb(95.887756%, 46.026611%, 8.222961%)" stop-opacity="1"/>
<stop offset="0.730469" stop-color="rgb(95.933533%, 46.580505%, 8.129883%)" stop-opacity="1"/>
<stop offset="0.734375" stop-color="rgb(95.968628%, 46.989441%, 8.059692%)" stop-opacity="1"/>
<stop offset="0.738281" stop-color="rgb(95.996094%, 47.311401%, 8.006287%)" stop-opacity="1"/>
<stop offset="0.742188" stop-color="rgb(96.022034%, 47.631836%, 7.952881%)" stop-opacity="1"/>
<stop offset="0.746094" stop-color="rgb(96.054077%, 48.01178%, 7.888794%)" stop-opacity="1"/>
<stop offset="0.75" stop-color="rgb(96.086121%, 48.391724%, 7.824707%)" stop-opacity="1"/>
<stop offset="0.753906" stop-color="rgb(96.110535%, 48.681641%, 7.775879%)" stop-opacity="1"/>
<stop offset="0.757812" stop-color="rgb(96.134949%, 48.970032%, 7.727051%)" stop-opacity="1"/>
<stop offset="0.761719" stop-color="rgb(96.156311%, 49.21875%, 7.685852%)" stop-opacity="1"/>
<stop offset="0.765625" stop-color="rgb(96.177673%, 49.465942%, 7.643127%)" stop-opacity="1"/>
<stop offset="0.769531" stop-color="rgb(96.208191%, 49.835205%, 7.582092%)" stop-opacity="1"/>
<stop offset="0.773438" stop-color="rgb(96.238708%, 50.205994%, 7.519531%)" stop-opacity="1"/>
<stop offset="0.78125" stop-color="rgb(96.250916%, 50.338745%, 7.496643%)" stop-opacity="1"/>
<stop offset="0.8125" stop-color="rgb(96.261597%, 50.471497%, 7.473755%)" stop-opacity="1"/>
<stop offset="0.875" stop-color="rgb(96.261597%, 50.471497%, 7.473755%)" stop-opacity="1"/>
<stop offset="1" stop-color="rgb(96.261597%, 50.471497%, 7.473755%)" stop-opacity="1"/>
</linearGradient>
</defs>
<g clip-path="url(#clip-0)">
<path fill-rule="nonzero" fill="url(#linear-pattern-0)" d="M 1712.398438 -1712.398438 L -1712.148438 1712.148438 L 1712.398438 5136.699219 L 5136.949219 1712.148438 Z M 1712.398438 -1712.398438 "/>
</g>
</svg>
